<?xml version="1.0" encoding="utf-8"?>
<!-- Generator: Adobe Illustrator 17.0.0, SVG Export Plug-In . SVG Version: 6.00 Build 0)  -->
<!DOCTYPE svg PUBLIC "-//W3C//DTD SVG 1.1//EN" "http://www.w3.org/Graphics/SVG/1.1/DTD/svg11.dtd">
<svg version="1.1" id="Layer_1" xmlns="http://www.w3.org/2000/svg" xmlns:xlink="http://www.w3.org/1999/xlink" x="0px" y="0px"
	 width="348.72px" height="244.104px" viewBox="0 0 348.72 244.104" enable-background="new 0 0 348.72 244.104"
	 xml:space="preserve">
<g>
	<path d="M133.388,116.052h-42c-3.317,0-6,2.683-6,6c0,3.312,2.683,6,6,6h42v21.582c-0.45,0.41-0.844,0.894-1.161,1.453
		c-0.144,0.254-0.289,0.508-0.433,0.766c-22.242,14.398-70.867,43.621-88.531,44.191c-3.368-1.672-13.422-13.152-24.45-31.395
		C7.837,146.493,0.747,129.774,0.747,122.052c0-7.727,7.09-24.446,18.066-42.598c11.028-18.242,21.082-29.723,24.45-31.394
		c18.097,0.586,68.703,31.25,90.125,45.226V116.052z M204.106,148.052h-58.718v-52h58.718V148.052z M330.681,164.649
		c-11.028,18.243-21.082,29.719-24.45,31.395c-17.664-0.574-66.289-29.793-88.531-44.191c-0.144-0.258-0.289-0.512-0.433-0.766
		c-0.317-0.559-0.711-1.043-1.161-1.457v-21.578h42c3.317,0,6-2.688,6-6c0-3.317-2.683-6-6-6h-42V93.286
		c21.422-13.976,72.028-44.64,90.125-45.226c3.368,1.671,13.422,13.148,24.45,31.394c10.976,18.152,18.066,34.875,18.066,42.598
		C348.747,129.774,341.657,146.493,330.681,164.649L330.681,164.649z M330.681,164.649"/>
</g>
</svg>
