<?xml version="1.0" encoding="utf-8"?>
<!-- Generator: Adobe Illustrator 17.0.0, SVG Export Plug-In . SVG Version: 6.00 Build 0)  -->
<!DOCTYPE svg PUBLIC "-//W3C//DTD SVG 1.1//EN" "http://www.w3.org/Graphics/SVG/1.1/DTD/svg11.dtd">
<svg version="1.1" id="Layer_1" xmlns="http://www.w3.org/2000/svg" xmlns:xlink="http://www.w3.org/1999/xlink" x="0px" y="0px"
	 width="348.72px" height="244.104px" viewBox="0 0 348.72 244.104" enable-background="new 0 0 348.72 244.104"
	 xml:space="preserve">
<path fill="#010101" d="M260.543,14.442h-11.802L236.548,2.249c-0.005-0.005-0.01-0.009-0.014-0.013
	c-1.35-1.342-3.183-2.079-5.036-2.079H117.222c-1.818,0-3.666,0.717-5.036,2.079c-0.005,0.005-0.01,0.009-0.014,0.013L99.979,14.442
	H88.177c-19.691,0-35.711,16.02-35.711,35.711v158.081c0,19.691,16.02,35.711,35.711,35.711h172.366
	c19.691,0,35.711-16.02,35.711-35.711V50.153C296.254,30.462,280.234,14.442,260.543,14.442z M195.411,205.651l-21.051,21.052
	l-18.468-18.468l35.446-35.446L195.411,205.651z M117.892,16.731c6.229,4.672,36.712,27.534,42.937,32.203l-38.838,19.419
	l-11.144-44.577L117.892,16.731z M166.387,100.149h15.946l0.37,2.984l-19.046,19.046L166.387,100.149z M160.797,145.239
	l24.133-24.134l4.179,33.71l-33.674,33.674L160.797,145.239z M184.23,85.865h-19.741l-9.116-18.233l18.987-9.493l18.986,9.493
	L184.23,85.865z M187.891,48.933c6.229-4.672,36.712-27.534,42.937-32.203l7.045,7.045l-11.144,44.577L187.891,48.933z
	 M210.071,14.442L174.36,41.226l-35.711-26.783H210.071z M66.75,208.235V50.153c0-11.815,9.612-21.427,21.427-21.427h9.184
	l12.932,51.728c1.108,4.432,6.043,6.696,10.123,4.656l22.181-11.09l10.125,20.25c-0.892,7.194-13.604,109.738-14.019,113.086
	c-0.003,0.028-0.002,0.056-0.006,0.084c-0.247,2.221,0.574,4.375,2.044,5.845l16.377,16.376h-68.94
	C76.362,229.662,66.75,220.05,66.75,208.235z M281.97,208.235c0,11.815-9.612,21.427-21.427,21.427h-68.94l16.376-16.376
	c1.557-1.557,2.309-3.744,2.038-5.929c-0.59-4.758-13.388-107.997-14.019-113.086l10.125-20.25l22.181,11.09
	c4.082,2.041,9.015-0.224,10.123-4.656l12.932-51.728h9.184c11.815,0,21.427,9.612,21.427,21.427V208.235z"/>
</svg>
