<?xml version="1.0" encoding="utf-8"?>
<!-- Generator: Adobe Illustrator 17.0.0, SVG Export Plug-In . SVG Version: 6.00 Build 0)  -->
<!DOCTYPE svg PUBLIC "-//W3C//DTD SVG 1.1//EN" "http://www.w3.org/Graphics/SVG/1.1/DTD/svg11.dtd">
<svg version="1.1" id="Layer_1" xmlns="http://www.w3.org/2000/svg" xmlns:xlink="http://www.w3.org/1999/xlink" x="0px" y="0px"
	 width="170.08px" height="113.39px" viewBox="0 0 170.08 113.39" enable-background="new 0 0 170.08 113.39" xml:space="preserve">
<g>
	<polygon fill="#EDEDED" points="51.5,99.365 51.466,91.328 43.369,93.942 51.5,99.365 	"/>
	<polygon fill="#EDEDED" points="128.221,45.487 120.223,39.844 120.259,48.076 128.221,45.487 	"/>
	<polygon fill="#EDEDED" points="50.258,66.038 48.154,66.687 48.154,65.352 50.071,64.76 50.071,63.9 48.154,64.493 48.154,63.209 
		50.258,62.559 50.258,61.7 47.267,62.626 47.267,67.817 50.258,66.895 50.258,66.038 	"/>
	<path fill="#EDEDED" d="M52.736,66.129l1.6-0.495c0.449-0.141,0.807-0.633,0.807-1.109v-1.162c0-0.477-0.348-0.607-0.77-0.604
		c-0.543,0.004-0.914,0.017-1.35,0.022c-0.109,0-0.201-0.052-0.201-0.169v-0.644c0-0.119,0.092-0.231,0.201-0.266l1.008-0.311
		c0.111-0.035,0.201,0.025,0.201,0.141v0.523l0.887-0.274v-0.725c0-0.477-0.363-0.747-0.815-0.606l-1.56,0.481
		c-0.453,0.139-0.807,0.632-0.807,1.107v1.07c0,0.477,0.354,0.591,0.792,0.595c0.544,0.004,0.761,0,1.323-0.011
		c0.117-0.006,0.199,0.04,0.199,0.157v0.75c0,0.116-0.088,0.229-0.199,0.263l-1.044,0.321c-0.111,0.035-0.197-0.022-0.197-0.138
		v-0.508l-0.892,0.274v0.708C51.92,65.998,52.284,66.268,52.736,66.129L52.736,66.129z"/>
	<polygon fill="#EDEDED" points="58.701,64.282 58.701,59.946 60.042,59.534 60.042,58.677 56.475,59.778 56.475,60.637 
		57.815,60.222 57.815,64.557 58.701,64.282 	"/>
	<polygon fill="#EDEDED" points="60.559,63.707 61.522,63.414 61.522,62.346 60.559,62.645 60.559,63.707 	"/>
	<polygon fill="#EDEDED" points="99.703,51.205 99.703,46.008 98.852,46.271 97.595,47.092 97.595,47.984 98.852,47.168 
		98.852,51.466 99.703,51.205 	"/>
	<path fill="#EDEDED" d="M101.518,48.545v1.277c0,0.454,0.337,0.713,0.768,0.582l1.43-0.441c0.436-0.135,0.784-0.609,0.784-1.061
		v-1.279c0-0.303-0.146-0.422-0.349-0.454c0.171-0.154,0.312-0.377,0.312-0.611v-1.199c0-0.453-0.348-0.711-0.786-0.578l-1.355,0.42
		c-0.429,0.131-0.769,0.604-0.769,1.057v1.203c0,0.232,0.133,0.369,0.302,0.411C101.656,48.033,101.518,48.24,101.518,48.545
		L101.518,48.545z M102.404,46.194c0-0.116,0.092-0.231,0.202-0.263l0.804-0.25c0.111-0.033,0.202,0.023,0.202,0.141v0.93
		c0,0.107-0.075,0.225-0.179,0.257l-0.827,0.255c-0.11,0.036-0.202-0.024-0.202-0.141V46.194L102.404,46.194z M102.369,48.359
		c0-0.117,0.086-0.229,0.196-0.263l0.885-0.275c0.11-0.032,0.196,0.024,0.196,0.142v0.999c0,0.118-0.086,0.229-0.196,0.264
		l-0.885,0.272c-0.11,0.034-0.196-0.023-0.196-0.143V48.359L102.369,48.359z"/>
	<polygon fill="#EDEDED" points="106.32,49.157 107.164,48.896 108.727,43.979 108.727,43.221 105.794,44.127 105.794,44.943 
		107.876,44.301 106.32,49.157 	"/>
	<path fill="#EDEDED" d="M111.548,47.541l0.851-0.262v-1.264l0.762-0.235v-0.778l-0.762,0.233v-3.151l-0.851,0.266l-2.009,3.769
		v0.78l2.009-0.619V47.541L111.548,47.541z M110.467,45.834l1.081-2.121v1.785L110.467,45.834L110.467,45.834z"/>
	<path fill="#EDEDED" d="M63.269,94.924l1.56-0.49l0.332,0.96l0.842-0.265l-1.561-4.395l-0.769,0.241l-1.562,5.377l0.84-0.266
		L63.269,94.924L63.269,94.924z M64.052,92.029l0.532,1.695l-1.065,0.337L64.052,92.029L64.052,92.029z"/>
	<path fill="#EDEDED" d="M71.04,90.307v-0.844c0-0.447-0.341-0.698-0.763-0.566l-1.558,0.493c-0.426,0.132-0.754,0.594-0.754,1.039
		v3.275c0,0.446,0.328,0.698,0.754,0.565l1.558-0.487c0.422-0.135,0.763-0.602,0.763-1.048v-0.889l-0.832,0.263v0.697
		c0,0.108-0.082,0.217-0.187,0.25l-1.039,0.323c-0.105,0.038-0.188-0.018-0.188-0.126v-2.894c0-0.107,0.082-0.216,0.188-0.246
		l1.039-0.33c0.104-0.034,0.187,0.023,0.187,0.133v0.653L71.04,90.307L71.04,90.307z"/>
	<path fill="#EDEDED" d="M76.44,88.606v-0.844c0-0.449-0.341-0.703-0.763-0.566l-1.561,0.491c-0.422,0.135-0.754,0.598-0.754,1.045
		v3.271c0,0.447,0.332,0.703,0.754,0.569l1.561-0.488c0.422-0.135,0.763-0.604,0.763-1.049v-0.888l-0.832,0.264v0.696
		c0,0.108-0.084,0.213-0.187,0.246l-1.04,0.329c-0.104,0.032-0.187-0.021-0.187-0.134v-2.888c0-0.107,0.082-0.218,0.187-0.247
		l1.04-0.329c0.103-0.033,0.187,0.021,0.187,0.132v0.654L76.44,88.606L76.44,88.606z"/>
	<polygon fill="#EDEDED" points="81.601,86.14 81.601,85.332 78.799,86.215 78.799,91.098 81.601,90.218 81.601,89.412 
		79.629,90.032 79.629,88.774 81.424,88.214 81.424,87.403 79.629,87.969 79.629,86.76 81.601,86.14 	"/>
	<path fill="#EDEDED" d="M83.849,88.032v0.671c0,0.446,0.343,0.697,0.766,0.565l1.497-0.47c0.421-0.136,0.757-0.6,0.757-1.048
		v-1.094c0-0.442-0.328-0.569-0.722-0.564c-0.507,0.008-0.852,0.02-1.263,0.024c-0.104,0.002-0.186-0.044-0.186-0.153v-0.61
		c0-0.11,0.082-0.214,0.186-0.249l0.944-0.296c0.104-0.032,0.185,0.021,0.185,0.133v0.489l0.834-0.262v-0.684
		c0-0.445-0.341-0.697-0.764-0.566l-1.464,0.464c-0.421,0.133-0.754,0.594-0.754,1.043v1.007c0,0.445,0.333,0.553,0.742,0.558
		c0.514,0,0.715-0.005,1.24-0.019c0.11-0.005,0.188,0.039,0.188,0.15v0.701c0,0.11-0.084,0.219-0.188,0.251l-0.979,0.306
		c-0.104,0.035-0.186-0.021-0.186-0.13v-0.477L83.849,88.032L83.849,88.032z"/>
	<path fill="#EDEDED" d="M89.154,86.365v0.669c0,0.444,0.341,0.696,0.761,0.565l1.497-0.475c0.425-0.132,0.76-0.594,0.76-1.043
		V84.99c0-0.449-0.325-0.57-0.722-0.565c-0.507,0.006-0.854,0.021-1.264,0.023c-0.104,0.006-0.184-0.047-0.184-0.152v-0.61
		c0-0.108,0.079-0.216,0.184-0.25l0.944-0.298c0.104-0.03,0.186,0.023,0.186,0.133v0.492l0.834-0.261v-0.683
		c0-0.448-0.341-0.702-0.766-0.566l-1.462,0.46c-0.421,0.133-0.756,0.598-0.756,1.043v1.006c0,0.447,0.335,0.555,0.744,0.561
		c0.512-0.003,0.715-0.008,1.241-0.017c0.109-0.006,0.188,0.037,0.188,0.143v0.707c0,0.108-0.085,0.217-0.188,0.249l-0.979,0.307
		c-0.104,0.031-0.189-0.022-0.189-0.132v-0.477L89.154,86.365L89.154,86.365z"/>
	<path fill="#EDEDED" d="M95.214,85.931l1.626-0.513c0.428-0.136,0.763-0.6,0.763-1.047V81.1c0-0.445-0.335-0.699-0.763-0.565
		l-1.626,0.514c-0.422,0.132-0.757,0.597-0.757,1.045v3.27C94.457,85.808,94.792,86.064,95.214,85.931L95.214,85.931z
		 M95.289,82.019c0-0.106,0.083-0.217,0.189-0.249l1.107-0.349c0.103-0.036,0.188,0.022,0.188,0.133v2.888
		c0,0.11-0.085,0.219-0.188,0.251l-1.107,0.348c-0.106,0.032-0.189-0.018-0.189-0.128V82.019L95.289,82.019z"/>
	<path fill="#EDEDED" d="M103.179,80.731v-1.386c0-0.448-0.339-0.702-0.764-0.566l-2.42,0.762v4.884l0.833-0.262v-1.888l0.874-0.274
		l0.874,1.611l0.915-0.287l-0.886-1.628C102.937,81.505,103.179,81.112,103.179,80.731L103.179,80.731z M102.347,80.803
		c0,0.109-0.084,0.216-0.187,0.248l-1.332,0.421v-1.388l1.332-0.416c0.103-0.034,0.187,0.02,0.187,0.13V80.803L102.347,80.803z"/>
	<polygon fill="#EDEDED" points="105.637,77.765 105.637,82.649 106.471,82.388 106.471,77.503 105.637,77.765 	"/>
	<polygon fill="#EDEDED" points="111.697,76.661 111.697,75.857 108.897,76.737 108.897,81.621 111.697,80.742 111.697,79.935 
		109.729,80.556 109.729,79.3 111.524,78.736 111.524,77.927 109.729,78.492 109.729,77.285 111.697,76.661 	"/>
	<path fill="#EDEDED" d="M113.951,78.557v0.669c0,0.444,0.339,0.701,0.764,0.566l1.498-0.47c0.419-0.136,0.753-0.601,0.753-1.048
		v-1.09c0-0.447-0.325-0.571-0.721-0.569c-0.506,0.008-0.851,0.022-1.261,0.025c-0.104,0.006-0.188-0.044-0.188-0.153V75.88
		c0-0.113,0.084-0.218,0.188-0.251l0.94-0.298c0.103-0.031,0.189,0.021,0.189,0.132v0.491l0.831-0.261v-0.683
		c0-0.448-0.341-0.698-0.761-0.568l-1.465,0.463c-0.42,0.132-0.754,0.595-0.754,1.045v1.005c0,0.445,0.334,0.554,0.742,0.558
		c0.51,0,0.71-0.004,1.24-0.016c0.11-0.008,0.188,0.037,0.188,0.144v0.706c0,0.109-0.087,0.217-0.188,0.248l-0.977,0.309
		c-0.106,0.034-0.189-0.021-0.189-0.132v-0.474L113.951,78.557L113.951,78.557z"/>
	<polygon fill="#EDEDED" points="52.59,92.621 130.504,67.825 130.504,67.175 52.59,91.975 52.59,92.621 	"/>
	<polygon fill="#EDEDED" points="62.324,99.278 118.945,81.257 118.945,80.607 62.324,98.628 62.324,99.278 	"/>
	<polygon fill="#EDEDED" points="119.451,46.775 91.887,55.493 91.887,56.139 119.451,47.428 119.451,46.775 	"/>
	<polygon fill="#EDEDED" points="67.673,63.272 41.013,71.752 41.013,72.4 67.673,63.921 67.673,63.272 	"/>
	<polygon fill="#EDEDED" points="40.18,82.102 25.528,86.763 25.528,87.41 40.18,82.75 40.18,82.102 	"/>
	<polygon fill="#EDEDED" points="146.035,28.287 120.271,36.488 120.271,37.137 146.035,28.938 146.035,28.287 	"/>
	<polygon fill="#EDEDED" points="25.737,110.905 51.503,102.701 51.503,102.052 25.737,110.253 25.737,110.905 	"/>
	<polygon fill="#EDEDED" points="131.742,57.205 147.045,52.338 147.045,51.686 131.742,56.556 131.742,57.205 	"/>
	<path fill="#EDEDED" d="M28.266,97.845c0-1.376-1.117-2.494-2.494-2.494c-1.377,0-2.494,1.118-2.494,2.494
		c0,1.38,1.117,2.494,2.494,2.494C27.148,100.339,28.266,99.225,28.266,97.845L28.266,97.845z"/>
	<path fill="#EDEDED" d="M145.339,39.23c-1.375,0-2.493,1.119-2.493,2.494c0,1.379,1.118,2.494,2.493,2.494
		c1.379,0,2.493-1.115,2.493-2.494C147.832,40.35,146.718,39.23,145.339,39.23L145.339,39.23z"/>
	<path fill="#EDEDED" d="M85.869,27.33L85.869,27.33c-2.062,0.488-4.095,0.96-6.162,1.361c2.688,0.05,5.375,0.078,8.066,0.178
		c0.956,0.036,1.921,0.068,2.88,0.098c-0.009,0.021-0.02,0.046-0.031,0.067l8.824,0.3c0-0.008,0-0.019-0.002-0.025
		c0.666-0.002,1.327-0.038,1.988-0.137c0.835-0.124,2.884-0.498,3.125-1.524c0.446-1.908-5.049-2.022-7.398-2.203
		c-2.297,0.09-4.587,0.334-6.812,0.834C88.825,26.627,87.34,26.981,85.869,27.33L85.869,27.33z"/>
	<path fill="#EDEDED" d="M69.229,4.074c-0.004,0.072-0.009,0.148-0.012,0.227C69.213,4.34,69.207,4.38,69.21,4.42
		c0.003,0.044,0.003,0.084,0.003,0.129c0.002,0.042,0.004,0.086,0.004,0.133c0,0.019,0,0.041,0.003,0.065
		c0,0.021,0.003,0.046,0.007,0.065c0.009,0.094,0.021,0.189,0.032,0.285c0.064,0.388,0.212,0.813,0.485,1.195
		c0.033,0.049,0.067,0.096,0.104,0.145c0.039,0.045,0.08,0.088,0.12,0.137c0.021,0.02,0.042,0.043,0.062,0.065
		c0.023,0.022,0.046,0.043,0.069,0.062c0.046,0.044,0.093,0.087,0.138,0.128c0.051,0.038,0.102,0.074,0.153,0.117
		c0.026,0.018,0.052,0.041,0.077,0.057c0.027,0.018,0.057,0.037,0.084,0.053c0.054,0.034,0.107,0.072,0.168,0.104
		c0.056,0.03,0.117,0.062,0.177,0.094c0.246,0.115,0.504,0.221,0.779,0.289c0.138,0.041,0.282,0.064,0.425,0.094
		c0.071,0.012,0.145,0.021,0.219,0.031l0.023,0.006c-0.031-0.021-0.063-0.037-0.096-0.055c-0.324-0.184-0.662-0.395-0.981-0.637
		c-0.159-0.124-0.312-0.253-0.455-0.391c-0.14-0.136-0.275-0.276-0.392-0.425c-0.116-0.146-0.219-0.295-0.309-0.441
		c-0.088-0.146-0.155-0.291-0.217-0.427c-0.027-0.068-0.055-0.133-0.074-0.195c-0.023-0.064-0.046-0.125-0.061-0.184
		c-0.017-0.056-0.03-0.11-0.047-0.158c-0.009-0.051-0.018-0.096-0.03-0.14c-0.019-0.081-0.027-0.148-0.034-0.191
		c-0.01-0.044-0.014-0.067-0.014-0.067s0.009,0.021,0.024,0.064c0.012,0.042,0.027,0.109,0.062,0.185
		c0.014,0.04,0.029,0.083,0.047,0.132c0.021,0.049,0.044,0.094,0.064,0.148c0.024,0.055,0.057,0.109,0.084,0.167
		c0.03,0.06,0.065,0.114,0.098,0.179c0.077,0.12,0.162,0.25,0.262,0.374c0.103,0.128,0.217,0.251,0.345,0.37
		c0.129,0.117,0.269,0.234,0.417,0.342c0.15,0.105,0.306,0.205,0.467,0.297c0.325,0.184,0.669,0.336,0.998,0.464
		c0.33,0.129,0.645,0.235,0.914,0.323c0.273,0.088,0.502,0.156,0.662,0.205c0.021,0.01,0.04,0.012,0.059,0.02
		c0.002,0,0.005,0,0.005,0c0.076-0.016,0.155-0.029,0.232-0.044c0.028-0.005,0.059-0.011,0.082-0.019
		c-0.265-0.109-0.558-0.229-0.862-0.367c-0.205-0.097-0.418-0.195-0.628-0.304c-0.212-0.114-0.422-0.231-0.63-0.364
		c-0.203-0.129-0.402-0.273-0.59-0.426c-0.186-0.149-0.355-0.315-0.51-0.485c-0.154-0.167-0.289-0.337-0.406-0.513
		c-0.061-0.084-0.107-0.174-0.158-0.254c-0.052-0.089-0.101-0.168-0.139-0.248c-0.081-0.16-0.149-0.31-0.202-0.447
		c-0.025-0.07-0.052-0.133-0.075-0.187c-0.018-0.062-0.036-0.118-0.053-0.163c-0.035-0.099-0.057-0.181-0.072-0.23
		c-0.016-0.055-0.026-0.082-0.026-0.082s0.015,0.027,0.03,0.079c0.026,0.047,0.057,0.127,0.096,0.221
		c0.023,0.046,0.045,0.098,0.073,0.156c0.024,0.055,0.058,0.114,0.091,0.18c0.065,0.129,0.146,0.268,0.24,0.416
		c0.044,0.073,0.1,0.148,0.153,0.226c0.059,0.075,0.115,0.156,0.181,0.231c0.125,0.153,0.273,0.307,0.433,0.451
		c0.159,0.146,0.339,0.283,0.527,0.41c0.186,0.128,0.384,0.241,0.592,0.346c0.411,0.211,0.844,0.377,1.262,0.516
		c0.413,0.142,0.807,0.26,1.147,0.357c0.222,0.062,0.417,0.118,0.582,0.17c0.072-0.031,0.147-0.062,0.219-0.092
		c0.037-0.016,0.068-0.029,0.102-0.047c-0.156-0.062-0.324-0.123-0.492-0.191c-0.396-0.155-0.816-0.33-1.23-0.527
		c-0.203-0.102-0.408-0.203-0.605-0.316c-0.195-0.114-0.384-0.229-0.561-0.352c-0.088-0.059-0.173-0.124-0.258-0.186
		c-0.078-0.066-0.16-0.129-0.232-0.193c-0.035-0.035-0.072-0.064-0.107-0.096c-0.035-0.034-0.067-0.07-0.103-0.101
		c-0.065-0.062-0.123-0.13-0.184-0.193c-0.057-0.062-0.108-0.128-0.159-0.188c-0.047-0.063-0.091-0.122-0.131-0.18
		c-0.037-0.056-0.072-0.108-0.105-0.161c-0.033-0.049-0.057-0.1-0.083-0.142c-0.05-0.083-0.079-0.157-0.103-0.204
		c-0.021-0.05-0.035-0.073-0.035-0.073s0.014,0.023,0.045,0.068c0.022,0.046,0.058,0.115,0.119,0.196
		c0.025,0.039,0.054,0.086,0.09,0.132c0.037,0.046,0.074,0.099,0.117,0.153c0.044,0.049,0.093,0.104,0.145,0.162
		c0.053,0.053,0.107,0.112,0.17,0.168c0.061,0.057,0.123,0.119,0.193,0.174c0.038,0.027,0.072,0.057,0.107,0.087
		c0.035,0.026,0.074,0.056,0.114,0.085c0.075,0.057,0.159,0.111,0.241,0.167c0.086,0.052,0.172,0.107,0.262,0.159
		c0.18,0.104,0.375,0.2,0.572,0.291c0.197,0.094,0.408,0.176,0.615,0.257c0.412,0.159,0.84,0.294,1.245,0.413
		c0.341,0.102,0.667,0.195,0.952,0.281l0.158-0.09c0.058-0.033,0.119-0.067,0.18-0.1C76.471,6.52,76.17,6.41,75.874,6.293
		c-0.224-0.088-0.445-0.179-0.659-0.277C75,5.92,74.792,5.82,74.592,5.715c-0.199-0.101-0.385-0.211-0.56-0.321
		c-0.086-0.054-0.172-0.106-0.248-0.165c-0.039-0.031-0.078-0.055-0.117-0.079c-0.035-0.03-0.072-0.06-0.107-0.085
		c-0.145-0.111-0.268-0.217-0.373-0.317c-0.057-0.047-0.1-0.098-0.146-0.142c-0.045-0.045-0.082-0.088-0.117-0.129
		c-0.068-0.074-0.118-0.14-0.153-0.183c-0.035-0.044-0.052-0.067-0.052-0.067s0.021,0.021,0.057,0.062
		c0.039,0.041,0.088,0.102,0.168,0.175c0.037,0.032,0.074,0.075,0.123,0.114c0.049,0.042,0.096,0.088,0.154,0.131
		c0.111,0.093,0.24,0.188,0.39,0.285c0.036,0.022,0.074,0.045,0.111,0.072c0.04,0.023,0.081,0.047,0.121,0.072
		c0.081,0.049,0.168,0.094,0.257,0.143c0.18,0.096,0.371,0.188,0.573,0.274c0.2,0.089,0.411,0.174,0.628,0.251
		c0.219,0.082,0.442,0.153,0.666,0.225c0.416,0.129,0.84,0.242,1.24,0.345c0.183-0.104,0.366-0.207,0.555-0.301
		c-0.053-0.019-0.108-0.035-0.157-0.052c-0.116-0.037-0.234-0.076-0.349-0.117c-0.113-0.041-0.229-0.08-0.338-0.121
		c-0.109-0.043-0.221-0.084-0.328-0.125c-0.107-0.043-0.213-0.086-0.312-0.13c-0.103-0.046-0.203-0.086-0.301-0.134
		c-0.094-0.043-0.187-0.089-0.275-0.131c-0.047-0.023-0.091-0.042-0.131-0.068c-0.044-0.02-0.083-0.041-0.125-0.064
		c-0.08-0.047-0.16-0.09-0.231-0.131c-0.075-0.038-0.14-0.085-0.203-0.124c-0.126-0.081-0.237-0.146-0.321-0.214
		c-0.175-0.127-0.273-0.2-0.273-0.2s0.104,0.068,0.285,0.183c0.088,0.062,0.203,0.119,0.333,0.191
		c0.065,0.034,0.134,0.079,0.21,0.111c0.075,0.036,0.151,0.072,0.235,0.111c0.042,0.02,0.087,0.041,0.126,0.062
		c0.044,0.02,0.088,0.036,0.133,0.056c0.094,0.035,0.187,0.074,0.285,0.115c0.098,0.039,0.198,0.072,0.301,0.11
		c0.101,0.036,0.207,0.075,0.318,0.106c0.107,0.037,0.22,0.072,0.332,0.107c0.112,0.033,0.227,0.064,0.345,0.098
		c0.112,0.034,0.229,0.066,0.345,0.095c0.119,0.03,0.238,0.062,0.354,0.089c0.021,0.006,0.04,0.008,0.059,0.014
		c0.191-0.099,0.385-0.197,0.575-0.29c-0.039-0.014-0.076-0.027-0.113-0.04c-0.115-0.039-0.227-0.082-0.334-0.123
		c-0.111-0.041-0.219-0.076-0.321-0.119c-0.206-0.08-0.401-0.156-0.577-0.234c-0.092-0.035-0.176-0.073-0.258-0.107
		c-0.082-0.04-0.156-0.074-0.227-0.105c-0.145-0.066-0.27-0.124-0.367-0.175c-0.203-0.103-0.318-0.161-0.318-0.161
		s0.119,0.053,0.324,0.143c0.105,0.045,0.229,0.096,0.379,0.15c0.074,0.028,0.15,0.061,0.232,0.091
		c0.082,0.03,0.166,0.062,0.258,0.094c0.184,0.067,0.381,0.132,0.594,0.198c0.103,0.035,0.213,0.066,0.324,0.1
		c0.109,0.033,0.223,0.067,0.34,0.103c0.096,0.024,0.191,0.051,0.287,0.075c0.26-0.113,0.514-0.232,0.766-0.349
		c0.006-0.003,0.013-0.004,0.02-0.005l-1.963-0.793l2.072,0.74c0.24-0.108,0.482-0.201,0.723-0.299l0,0l-1.432-0.578l1.521,0.542
		c0.108-0.044,0.218-0.087,0.327-0.131c0.07-0.025,0.135-0.054,0.205-0.079c0.053-0.02,0.108-0.037,0.162-0.055l-1.209-0.487
		l1.285,0.458c0.261-0.088,0.516-0.175,0.76-0.26c0.064-0.019,0.125-0.043,0.193-0.063c0.062-0.017,0.126-0.036,0.187-0.054
		c0.128-0.037,0.252-0.07,0.37-0.105c0.24-0.065,0.472-0.137,0.691-0.195c0.223-0.051,0.436-0.098,0.634-0.145
		c0.198-0.043,0.382-0.09,0.556-0.126c0.173-0.03,0.332-0.062,0.474-0.085c0.288-0.05,0.515-0.086,0.667-0.111
		c0.082-0.015,0.142-0.023,0.18-0.03c-1.174-0.064-2.357-0.03-3.536,0.099c-1.905,0.194-3.787,0.594-5.698,0.709
		c-1.033,0.064-2.068,0.037-3.093-0.106c-1.077-0.149-2.082-0.526-3.143-0.728c-0.417-0.078-0.823-0.102-1.215-0.074
		c-0.01,0.036-0.023,0.107-0.044,0.21C69.296,3.562,69.264,3.791,69.229,4.074L69.229,4.074z"/>
	<path fill="#EDEDED" d="M53.128,24.25c1.435,0.855,3.108,1.391,4.685,1.916c4.384,1.463,9.072,1.943,13.668,2.237
		c1.376,0.09,2.756,0.236,4.128,0.192c2.831-0.056,4.749-0.82,7.074-1.343c-0.218-0.009-0.442-0.017-0.677-0.026
		c-0.629-0.02-1.314-0.056-2.037-0.088c-0.722-0.045-1.483-0.083-2.27-0.146c-0.197-0.016-0.395-0.03-0.594-0.045
		c-0.201-0.014-0.404-0.04-0.607-0.057c-0.4-0.038-0.811-0.076-1.221-0.117c-0.826-0.086-1.656-0.096-2.492-0.16
		c-0.838-0.068-1.675-0.191-2.5-0.279c-0.412-0.046-0.821-0.091-1.22-0.15c-0.202-0.023-0.403-0.053-0.603-0.078
		c-0.197-0.029-0.393-0.059-0.587-0.086c-0.392-0.059-0.773-0.114-1.147-0.175c-0.375-0.059-0.74-0.118-1.098-0.182
		c-0.354-0.061-0.702-0.121-1.035-0.184c-0.166-0.034-0.329-0.065-0.489-0.094c-0.164-0.032-0.32-0.067-0.476-0.097
		c-0.615-0.125-1.177-0.254-1.677-0.375c-0.496-0.125-0.928-0.24-1.277-0.352c-0.352-0.104-0.625-0.199-0.809-0.271
		c-0.183-0.073-0.277-0.117-0.277-0.117s0.095,0.044,0.279,0.11c0.188,0.067,0.457,0.157,0.811,0.255
		c0.357,0.101,0.787,0.204,1.287,0.318c0.5,0.107,1.064,0.227,1.684,0.334c0.158,0.027,0.314,0.054,0.475,0.083
		c0.164,0.027,0.324,0.055,0.494,0.082c0.333,0.056,0.679,0.108,1.035,0.159c0.357,0.057,0.723,0.105,1.099,0.155
		c0.374,0.05,0.759,0.099,1.149,0.146c0.193,0.024,0.391,0.049,0.59,0.071c0.198,0.023,0.396,0.042,0.598,0.062
		c0.402,0.046,0.809,0.077,1.221,0.112c0.818,0.062,1.654,0.135,2.493,0.178c0.839,0.039,1.686,0.049,2.509,0.108
		c0.415,0.029,0.818,0.055,1.222,0.078c0.202,0.009,0.401,0.025,0.603,0.03c0.199,0.011,0.395,0.018,0.592,0.025
		c0.783,0.04,1.543,0.052,2.262,0.069c0.72,0.01,1.399,0.019,2.029,0.018c0.626,0.003,1.203,0,1.715-0.003
		c0.508-0.007,0.954-0.013,1.32-0.015c0.271-0.002,0.498-0.006,0.68-0.01c1.646-0.387,3.309-0.781,5.008-1.14
		c1.996-0.429,3.903-0.655,5.772-0.722c0.014-0.061,0.022-0.123,0.033-0.186c-0.258,0.025-0.522,0.045-0.795,0.059
		c-0.156,0.01-0.315,0.026-0.475,0.029c-0.161,0.008-0.323,0.016-0.486,0.021c-0.329,0.019-0.663,0.019-1.003,0.028
		c-0.681,0.009-1.381,0.009-2.097-0.005c-0.357-0.005-0.718-0.016-1.078-0.027c-0.18-0.008-0.359-0.01-0.542-0.018
		c-0.177-0.008-0.359-0.016-0.54-0.022c-0.361-0.021-0.721-0.03-1.083-0.052c-0.36-0.023-0.719-0.047-1.074-0.064
		c-0.354-0.021-0.709-0.051-1.057-0.07c-0.349-0.028-0.691-0.049-1.029-0.08c-0.675-0.057-1.33-0.105-1.946-0.167
		c-0.622-0.058-1.208-0.104-1.746-0.163c-0.538-0.057-1.031-0.105-1.471-0.152c-0.438-0.049-0.819-0.09-1.137-0.125
		C78.361,23.614,78,23.575,78,23.575s0.361,0.031,0.992,0.086c0.314,0.027,0.697,0.06,1.137,0.097
		c0.441,0.033,0.934,0.072,1.477,0.113c0.541,0.045,1.126,0.078,1.746,0.121c0.619,0.047,1.273,0.076,1.951,0.119
		c0.337,0.021,0.683,0.033,1.029,0.051c0.347,0.014,0.699,0.031,1.056,0.045c0.355,0.011,0.712,0.023,1.07,0.035
		c0.361,0.016,0.721,0.018,1.082,0.024c0.182,0.006,0.364,0.008,0.542,0.009c0.18,0.005,0.362,0.006,0.54,0.006
		c0.358,0,0.718,0.006,1.073,0c0.709-0.006,1.408-0.02,2.085-0.047c0.332-0.017,0.668-0.029,0.986-0.052
		c0.166-0.011,0.324-0.021,0.483-0.034c0.157-0.01,0.312-0.025,0.466-0.037c0.31-0.027,0.609-0.06,0.899-0.094
		c0.022-0.221,0.04-0.446,0.052-0.675c-0.238,0.024-0.479,0.043-0.729,0.06c-0.148,0.011-0.3,0.022-0.451,0.032
		c-0.155,0.006-0.309,0.016-0.464,0.02c-0.315,0.018-0.632,0.022-0.958,0.031c-0.65,0.016-1.321,0.018-2.003,0.008
		c-0.34,0-0.682-0.012-1.028-0.019c-0.17-0.005-0.344-0.011-0.516-0.016c-0.172-0.005-0.347-0.012-0.519-0.019
		c-0.344-0.017-0.688-0.026-1.034-0.045c-0.344-0.019-0.687-0.04-1.027-0.057c-0.338-0.016-0.676-0.044-1.008-0.063
		c-0.332-0.026-0.658-0.042-0.982-0.067c-0.645-0.053-1.269-0.098-1.861-0.154c-0.587-0.053-1.149-0.099-1.666-0.148
		c-0.516-0.053-0.986-0.099-1.404-0.141c-0.42-0.047-0.783-0.086-1.084-0.118c-0.599-0.063-0.943-0.1-0.943-0.1
		s0.345,0.026,0.947,0.077c0.301,0.022,0.665,0.053,1.086,0.087c0.42,0.033,0.892,0.064,1.407,0.103
		c0.518,0.039,1.077,0.068,1.667,0.105c0.593,0.043,1.215,0.069,1.862,0.103c0.324,0.016,0.65,0.027,0.985,0.041
		c0.329,0.012,0.667,0.03,1.004,0.041c0.342,0.01,0.682,0.017,1.027,0.025c0.341,0.01,0.687,0.014,1.031,0.017
		c0.173,0.003,0.346,0.007,0.518,0.008c0.173,0,0.342,0,0.513,0c0.345,0,0.686,0,1.025-0.008c0.677-0.008,1.345-0.025,1.987-0.059
		c0.322-0.017,0.635-0.029,0.947-0.057c0.155-0.012,0.305-0.022,0.455-0.033c0.152-0.014,0.302-0.03,0.449-0.044
		c0.27-0.023,0.53-0.056,0.785-0.087c0.003-0.189,0.003-0.375,0.003-0.565c-0.233,0.026-0.472,0.045-0.718,0.062
		c-0.148,0.009-0.293,0.023-0.445,0.032c-0.148,0.008-0.302,0.014-0.453,0.023c-0.311,0.019-0.624,0.025-0.943,0.034
		c-0.321,0.012-0.645,0.01-0.973,0.016c-0.33,0.004-0.66-0.004-0.994-0.006c-0.336,0-0.673-0.01-1.01-0.017
		c-0.172-0.001-0.342-0.008-0.512-0.012c-0.168-0.005-0.337-0.013-0.507-0.019c-0.342-0.013-0.681-0.023-1.019-0.044
		c-0.337-0.017-0.675-0.032-1.006-0.052c-0.335-0.017-0.669-0.039-0.993-0.062c-0.328-0.019-0.65-0.039-0.967-0.065
		c-0.633-0.048-1.248-0.091-1.828-0.146c-0.584-0.05-1.131-0.092-1.64-0.143c-0.507-0.054-0.972-0.098-1.381-0.137
		c-0.411-0.045-0.771-0.082-1.065-0.115c-0.59-0.062-0.928-0.099-0.928-0.099s0.338,0.028,0.93,0.074
		c0.295,0.024,0.655,0.054,1.068,0.087c0.414,0.027,0.875,0.061,1.385,0.098c0.506,0.037,1.059,0.065,1.64,0.101
		c0.581,0.036,1.196,0.064,1.831,0.095c0.315,0.019,0.636,0.029,0.965,0.043c0.325,0.01,0.659,0.024,0.994,0.033
		c0.33,0.01,0.667,0.018,1.005,0.023c0.337,0.01,0.674,0.01,1.016,0.016c0.169,0.005,0.339,0.005,0.509,0.008
		c0.167-0.003,0.335-0.003,0.507-0.003c0.336,0,0.671,0,1.007-0.011c0.33-0.003,0.66-0.006,0.984-0.02
		c0.326-0.014,0.65-0.02,0.966-0.043c0.317-0.018,0.627-0.031,0.932-0.057c0.153-0.012,0.302-0.023,0.448-0.035
		c0.15-0.014,0.297-0.027,0.44-0.039c0.255-0.028,0.507-0.058,0.746-0.088c-0.005-0.194-0.013-0.38-0.022-0.562
		c-0.226,0.024-0.457,0.043-0.694,0.059c-0.145,0.012-0.292,0.023-0.438,0.033c-0.151,0.009-0.304,0.016-0.455,0.022
		c-0.305,0.02-0.618,0.025-0.933,0.034c-0.317,0.012-0.639,0.012-0.965,0.014c-0.324,0.01-0.653,0-0.987,0
		c-0.332,0-0.665-0.008-1.001-0.015c-0.168-0.007-0.335-0.008-0.504-0.014c-0.169-0.005-0.337-0.013-0.505-0.02
		c-0.339-0.012-0.672-0.022-1.007-0.04c-0.337-0.016-0.67-0.034-1.001-0.051c-0.332-0.018-0.658-0.042-0.984-0.062
		c-0.324-0.021-0.642-0.039-0.956-0.064c-0.633-0.049-1.237-0.09-1.813-0.144c-0.578-0.049-1.121-0.09-1.622-0.142
		c-0.506-0.049-0.966-0.093-1.373-0.132c-0.408-0.043-0.761-0.081-1.057-0.112c-0.584-0.059-0.919-0.097-0.919-0.097
		s0.338,0.028,0.922,0.071c0.293,0.024,0.65,0.051,1.059,0.084c0.408,0.031,0.869,0.061,1.373,0.094
		c0.504,0.037,1.049,0.066,1.626,0.1c0.575,0.039,1.185,0.064,1.813,0.096c0.315,0.014,0.637,0.024,0.959,0.039
		c0.324,0.01,0.65,0.024,0.981,0.031c0.332,0.01,0.664,0.017,1,0.025c0.334,0.01,0.672,0.01,1.004,0.014
		c0.171,0.004,0.337,0.004,0.506,0.007c0.168-0.003,0.334-0.003,0.5-0.003c0.336,0,0.667,0,0.998-0.011
		c0.33-0.007,0.66-0.01,0.98-0.023c0.325-0.016,0.643-0.022,0.955-0.043c0.316-0.019,0.624-0.031,0.925-0.058
		c0.151-0.014,0.296-0.026,0.446-0.035c0.148-0.014,0.289-0.029,0.434-0.043c0.243-0.023,0.475-0.053,0.705-0.082
		c-0.01-0.195-0.029-0.385-0.042-0.562c-0.192,0.019-0.383,0.036-0.579,0.051c-0.14,0.01-0.287,0.021-0.433,0.032
		c-0.147,0.008-0.291,0.015-0.442,0.021c-0.299,0.021-0.603,0.027-0.916,0.041c-0.308,0.011-0.625,0.009-0.943,0.016
		c-0.319,0.006-0.641,0-0.97,0c-0.325,0-0.653-0.007-0.981-0.015c-0.165-0.001-0.327-0.007-0.492-0.009
		c-0.166-0.008-0.329-0.013-0.496-0.018c-0.329-0.016-0.66-0.022-0.988-0.039c-0.328-0.015-0.654-0.033-0.98-0.047
		c-0.326-0.018-0.646-0.039-0.964-0.06c-0.317-0.018-0.631-0.036-0.939-0.06c-0.616-0.046-1.216-0.085-1.777-0.136
		c-0.566-0.051-1.099-0.092-1.59-0.139c-0.492-0.05-0.945-0.091-1.346-0.129c-0.398-0.041-0.752-0.077-1.035-0.108
		c-0.574-0.057-0.902-0.092-0.902-0.092s0.328,0.023,0.904,0.068c0.287,0.022,0.637,0.049,1.037,0.076
		c0.402,0.029,0.854,0.059,1.348,0.093c0.492,0.033,1.027,0.062,1.594,0.094c0.564,0.036,1.162,0.058,1.778,0.087
		C86.78,19.99,87.094,20,87.41,20.01c0.317,0.01,0.638,0.024,0.964,0.031c0.325,0.007,0.651,0.016,0.977,0.019
		c0.329,0.012,0.662,0.008,0.987,0.014c0.166,0,0.331,0.002,0.495,0.002c0.165,0,0.327-0.002,0.49-0.002
		c0.327-0.002,0.654-0.002,0.977-0.014c0.326-0.01,0.648-0.013,0.964-0.026c0.316-0.015,0.631-0.023,0.937-0.044
		c0.308-0.02,0.607-0.035,0.901-0.062c0.148-0.012,0.296-0.024,0.441-0.034c0.142-0.016,0.284-0.03,0.427-0.045
		c0.192-0.021,0.385-0.041,0.57-0.066c-0.021-0.219-0.04-0.41-0.06-0.565c-0.115,0.011-0.232,0.023-0.351,0.032
		c-0.137,0.01-0.275,0.021-0.417,0.033c-0.141,0.008-0.28,0.019-0.426,0.026c-0.291,0.017-0.584,0.028-0.883,0.036
		c-0.299,0.016-0.604,0.016-0.912,0.023c-0.308,0.007-0.62,0.004-0.933,0.004c-0.312,0-0.629-0.004-0.948-0.008
		c-0.157-0.004-0.316-0.004-0.476-0.012c-0.158,0-0.316-0.008-0.475-0.011c-0.32-0.009-0.638-0.019-0.953-0.033
		c-0.319-0.015-0.634-0.028-0.946-0.044c-0.311-0.014-0.624-0.037-0.929-0.051c-0.309-0.018-0.608-0.034-0.906-0.058
		c-0.596-0.042-1.172-0.077-1.715-0.124c-0.547-0.046-1.062-0.084-1.535-0.13c-0.473-0.042-0.91-0.083-1.296-0.121
		c-0.388-0.034-0.721-0.07-0.999-0.1c-0.555-0.052-0.869-0.086-0.869-0.086s0.316,0.023,0.869,0.062
		c0.278,0.018,0.614,0.043,1.004,0.071c0.385,0.022,0.82,0.052,1.297,0.082c0.477,0.032,0.992,0.055,1.535,0.086
		c0.547,0.029,1.123,0.048,1.718,0.076c0.297,0.013,0.599,0.021,0.907,0.03c0.304,0.005,0.614,0.018,0.929,0.023
		c0.312,0.005,0.625,0.013,0.942,0.018c0.315,0.004,0.633,0.001,0.95,0.004c0.16,0,0.317,0,0.477,0
		c0.157-0.003,0.315-0.003,0.473-0.004c0.318-0.001,0.635-0.009,0.945-0.018c0.311-0.011,0.621-0.014,0.925-0.03
		c0.307-0.017,0.608-0.027,0.903-0.049c0.296-0.019,0.588-0.037,0.871-0.065c0.142-0.009,0.281-0.023,0.424-0.034
		c0.135-0.018,0.269-0.03,0.407-0.046c0.111-0.015,0.222-0.024,0.333-0.042v-0.003c0,0,0.216-4.358,0.304-6.511
		c0.092-2.232,0.23-4.377-1.566-6.001c-1.564-1.414-3.823-2.043-5.827-2.497c-1.074-0.244-2.158-0.389-3.247-0.45
		c-0.037,0.009-0.102,0.034-0.197,0.06c-0.149,0.046-0.366,0.111-0.647,0.188c-0.14,0.044-0.296,0.084-0.461,0.137
		c-0.167,0.053-0.348,0.113-0.539,0.173c-0.191,0.064-0.396,0.128-0.613,0.2c-0.213,0.072-0.436,0.154-0.672,0.239
		c-0.113,0.041-0.231,0.087-0.354,0.126C82.543,4.445,82.48,4.467,82.42,4.49c-0.063,0.021-0.125,0.051-0.186,0.076
		c-0.098,0.037-0.195,0.078-0.295,0.117c-0.037,0.016-0.072,0.029-0.105,0.045c-0.121,0.048-0.244,0.098-0.366,0.149
		c-0.065,0.024-0.131,0.052-0.196,0.077c-0.027,0.011-0.051,0.023-0.079,0.035c-0.037,0.018-0.077,0.033-0.112,0.049
		c-0.003,0.002-0.006,0.004-0.008,0.004c-0.131,0.061-0.267,0.123-0.402,0.183c-0.056,0.026-0.109,0.051-0.165,0.073
		c-0.061,0.029-0.123,0.059-0.187,0.087c-0.158,0.068-0.317,0.141-0.475,0.223c-0.068,0.036-0.137,0.069-0.207,0.103
		c-0.098,0.049-0.188,0.094-0.286,0.142c-0.116,0.059-0.233,0.117-0.35,0.173c-0.042,0.022-0.087,0.045-0.128,0.068
		c-0.126,0.066-0.254,0.135-0.383,0.203c-0.111,0.06-0.224,0.12-0.338,0.183c-0.055,0.025-0.109,0.056-0.166,0.086
		c-0.014,0.009-0.029,0.017-0.051,0.026l-0.107,0.06l-0.107,0.062c-0.082,0.046-0.163,0.092-0.25,0.142
		c-0.057,0.034-0.121,0.068-0.18,0.103c-0.041,0.025-0.086,0.049-0.127,0.075c-0.101,0.056-0.201,0.113-0.304,0.171l-0.215,0.119
		l-0.118,0.065l-0.111,0.061c-0.076,0.042-0.152,0.08-0.229,0.116c-0.067,0.031-0.134,0.061-0.202,0.092
		c-0.012,0.008-0.021,0.012-0.035,0.018c-0.158,0.063-0.32,0.133-0.483,0.184c-0.054,0.02-0.104,0.037-0.159,0.054
		C75.032,8,74.752,8.062,74.475,8.117c-0.107,0.021-0.219,0.035-0.326,0.051c-0.227,0.029-0.454,0.051-0.678,0.059
		c-0.01,0-0.021,0-0.029,0c-0.073,0.004-0.146,0-0.221,0.004c-0.082,0-0.166,0-0.245-0.009c-0.083-0.003-0.167-0.005-0.247-0.012
		c-0.08-0.011-0.163-0.021-0.244-0.024l-0.121-0.018l-0.117-0.02c-0.082-0.017-0.159-0.029-0.238-0.043
		c-0.156-0.039-0.31-0.072-0.459-0.123c-0.301-0.09-0.586-0.216-0.85-0.359c-0.064-0.039-0.13-0.08-0.191-0.117
		c-0.064-0.038-0.122-0.084-0.184-0.124c-0.03-0.022-0.061-0.044-0.088-0.064c-0.028-0.023-0.056-0.045-0.082-0.071
		c-0.056-0.045-0.109-0.093-0.166-0.14c-0.046-0.05-0.096-0.103-0.144-0.153c-0.023-0.025-0.046-0.049-0.071-0.078
		c-0.021-0.023-0.042-0.054-0.065-0.078c-0.039-0.056-0.084-0.106-0.123-0.16c-0.037-0.057-0.07-0.112-0.108-0.17
		c-0.074-0.11-0.123-0.23-0.177-0.34c-0.033-0.059-0.047-0.117-0.07-0.174c-0.021-0.059-0.039-0.113-0.061-0.17
		c-0.027-0.115-0.054-0.229-0.078-0.337c-0.013-0.11-0.027-0.218-0.038-0.321c-0.007-0.104-0.01-0.205-0.013-0.302
		c0-0.025-0.002-0.05-0.002-0.073c0.002-0.021,0.002-0.047,0.008-0.068c0.002-0.051,0.007-0.094,0.012-0.137
		c0-0.049,0.004-0.092,0.009-0.133c0.003-0.043,0.012-0.083,0.017-0.123c0.016-0.081,0.027-0.158,0.039-0.23
		c0.059-0.289,0.127-0.512,0.18-0.659c0.035-0.1,0.061-0.164,0.07-0.2c-1.902,0.131-3.483,1.438-4.08,3.361
		c-0.401,1.574-3.342,13.652-3.664,15.389c-0.095,0.521-2.91,0.186-3.339,0.155c-0.993-0.063-1.983-0.495-2.934-0.772
		c-0.613-0.182-2.019-0.161-2.588,0.113C51.024,22.294,52.553,23.908,53.128,24.25L53.128,24.25z"/>
	<path fill="#EDEDED" d="M68.455,47.219c-0.401-0.079-0.721-0.142-1.008-0.142c-0.537,0-0.914,0.218-1.348,0.78l-0.121,0.156
		l0.182,0.083c0.62,0.282,1.156,0.302,1.725,0.325c0.324,0.011,0.661,0.023,1.022,0.09c0.347,0.062,0.694,0.125,1.04,0.188
		l0.469,0.084c0.014,0.005,0.032,0.005,0.049,0.005c0.23,0,0.506-0.306,0.842-0.706c0.068-0.08,0.126-0.15,0.162-0.188l0.25-0.25
		l-0.354-0.018c-0.996-0.043-1.799-0.199-2.724-0.375L68.455,47.219L68.455,47.219z"/>
	<path fill="#EDEDED" d="M81.377,36.877c0.361-0.01,0.723-0.029,1.074-0.049c0.426-0.021,0.828-0.043,1.225-0.049l0.02-0.367
		c-1.275-0.144-2.473-0.484-3.736-0.844c-0.266-0.078-0.531-0.15-0.799-0.227c-0.133-0.033-0.35-0.18-0.562-0.319
		c-0.365-0.243-0.741-0.489-1.057-0.489c-0.109,0-0.203,0.025-0.284,0.084l-2.905,2.005l0.816-0.132
		c0.398-0.067,0.799-0.098,1.224-0.098c0.341,0,0.675,0.021,1.01,0.057l0.136,1.25c0.047,0.412,0.516,0.47,0.925,0.47
		c0.087,0,0.171-0.003,0.247-0.007c0.115-0.003,0.225-0.007,0.299,0c0.642,0.043,1.396-0.537,2.065-1.05
		C81.178,37.031,81.277,36.947,81.377,36.877L81.377,36.877z"/>
	<path fill="#EDEDED" d="M79.381,33.152c-0.776-0.219-1.299-0.305-1.803-0.305c-0.635,0-1.254,0.15-2.127,0.377
		c-0.278,0.069-0.711,0.251-1.17,0.439c-0.746,0.314-1.595,0.667-2.031,0.667c-0.039,0-0.074,0-0.104-0.008
		c-0.765-0.159-0.89-1.495-0.971-2.376c-0.021-0.242-0.04-0.451-0.07-0.611l-0.111-0.629l-0.646,3.111
		c-0.178,0.842-0.01,1.023,0.43,1.51c0.076,0.08,0.16,0.173,0.252,0.281c0.288,0.332,0.491,0.46,0.731,0.46
		c0.181,0,0.353-0.075,0.59-0.178c0.121-0.054,0.265-0.112,0.429-0.175c0.218-0.08,0.448-0.152,0.67-0.227
		c0.455-0.152,0.926-0.307,1.355-0.516c0.475-0.23,0.939-0.523,1.385-0.808c0.217-0.14,0.445-0.28,0.666-0.413
		c0.196-0.117,0.443-0.175,0.779-0.175c0.212,0,0.432,0.024,0.641,0.044c0.178,0.017,0.344,0.031,0.504,0.037
		c0.991,0.031,2.002,0.076,2.979,0.117c0.358,0.018,0.715,0.033,1.074,0.046l0.019-0.244c-0.365-0.044-0.755-0.075-1.132-0.101
		C80.928,33.418,80.108,33.355,79.381,33.152L79.381,33.152z"/>
	<path fill="#EDEDED" d="M73.801,37.678l0.485,0.549c0.059,0.066,0.128,0.152,0.212,0.249c0.664,0.79,1.355,1.565,1.859,1.595
		c0.195,0.011,0.395,0.024,0.586,0.042c0.332,0.028,0.673,0.056,1.008,0.056l0,0c0.497,0,0.905-0.063,1.283-0.197l0.463-0.165
		l-0.483-0.093c-1.848-0.361-3.052-0.787-4.766-1.695L73.801,37.678L73.801,37.678z"/>
	<path fill="#EDEDED" d="M89.601,54.381c1.153-0.658,2.327-0.936,2.702-2.22c0.756-2.577,1.502-5.157,2.29-7.722
		c0.221-0.727,0.245-0.623,0.945-0.961c0.753-0.359,0.947-1.164,1.163-1.895c0.434-1.463,1.806-1.935,2.462-3.242
		c0.413-0.82,0.781-1.8,0.598-2.732c-0.016-0.074-0.022-0.154-0.026-0.232c-0.269-0.352-0.547-0.7-0.84-1.037
		c-0.226-0.261-0.457-0.514-0.7-0.734l-0.047-0.041l-0.005-0.006c-0.002-0.002,0.002,0.004,0,0l-0.002-0.002l-0.014-0.012
		l-0.023-0.018c-0.03-0.028-0.056-0.046-0.087-0.068c-0.059-0.043-0.125-0.083-0.192-0.113c-0.129-0.07-0.276-0.114-0.425-0.138
		c-0.296-0.051-0.602-0.027-0.887,0.021c-0.288,0.053-0.558,0.133-0.803,0.216c-0.49,0.169-0.889,0.349-1.171,0.466
		c-0.283,0.117-0.446,0.174-0.446,0.174s0.156-0.068,0.426-0.217c0.271-0.139,0.652-0.355,1.133-0.573
		c0.24-0.11,0.511-0.214,0.807-0.3c0.296-0.078,0.627-0.141,0.982-0.111c0.177,0.016,0.356,0.049,0.532,0.117
		c0.09,0.035,0.177,0.076,0.259,0.127c0.037,0.021,0.088,0.053,0.122,0.076l0.025,0.022l0.014,0.009h0.005l0.009,0.006l0.003,0.007
		l0.054,0.039c0.28,0.224,0.537,0.472,0.791,0.72c0.192,0.199,0.382,0.4,0.568,0.602c0.054-0.279,0.121-0.567,0.141-0.848
		c-0.145-0.176-0.297-0.36-0.454-0.546c-0.175-0.212-0.358-0.425-0.556-0.63c-0.099-0.104-0.199-0.203-0.305-0.29
		c-0.104-0.089-0.213-0.171-0.317-0.228c-0.026-0.01-0.053-0.023-0.076-0.031l-0.105-0.036c-0.065-0.017-0.127-0.034-0.195-0.05
		c-0.132-0.025-0.271-0.045-0.406-0.051c-0.28-0.013-0.562,0.011-0.831,0.051c-0.267,0.045-0.527,0.105-0.772,0.168
		c-0.244,0.067-0.473,0.137-0.684,0.205c-0.423,0.138-0.773,0.264-1.019,0.346c-0.247,0.084-0.389,0.127-0.389,0.127
		s0.137-0.059,0.374-0.16c0.24-0.104,0.578-0.257,0.991-0.43c0.205-0.088,0.426-0.18,0.672-0.27c0.24-0.086,0.501-0.171,0.777-0.238
		c0.277-0.068,0.572-0.118,0.881-0.128c0.151-0.009,0.31,0,0.467,0.017c0.075,0.009,0.16,0.024,0.24,0.043l0.11,0.022
		c0.048,0.013,0.09,0.028,0.132,0.045c0.162,0.071,0.298,0.161,0.426,0.253c0.126,0.098,0.242,0.196,0.355,0.299
		c0.223,0.201,0.43,0.408,0.625,0.613c0.014,0.014,0.028,0.029,0.042,0.044c-0.024-0.368-0.06-0.731-0.105-1.095
		c-0.002,0-0.006-0.004-0.009-0.004c-0.24-0.178-0.5-0.343-0.777-0.485c-0.28-0.141-0.581-0.249-0.893-0.325
		c-0.309-0.073-0.626-0.111-0.944-0.117c-0.313-0.008-0.629,0.024-0.929,0.074c-0.149,0.021-0.295,0.056-0.441,0.082
		c-0.068,0.021-0.141,0.037-0.209,0.055c-0.036,0.011-0.067,0.02-0.104,0.027c-0.035,0.01-0.066,0.022-0.101,0.032
		c-0.071,0.017-0.134,0.036-0.201,0.056c-0.063,0.022-0.13,0.044-0.188,0.064c-0.128,0.043-0.247,0.085-0.363,0.127
		c-0.116,0.043-0.227,0.088-0.329,0.129c-0.104,0.04-0.202,0.084-0.293,0.123c-0.187,0.08-0.346,0.152-0.475,0.213
		c-0.129,0.062-0.23,0.111-0.302,0.146c-0.067,0.032-0.108,0.05-0.108,0.05s0.037-0.021,0.104-0.058
		c0.068-0.034,0.166-0.094,0.294-0.157c0.129-0.066,0.28-0.151,0.463-0.24c0.091-0.043,0.187-0.092,0.289-0.137
		c0.103-0.049,0.208-0.1,0.323-0.15c0.112-0.045,0.231-0.101,0.356-0.147c0.061-0.024,0.125-0.049,0.19-0.073
		c0.063-0.024,0.133-0.046,0.197-0.072c0.033-0.011,0.069-0.02,0.101-0.033c0.038-0.013,0.069-0.021,0.104-0.032
		c0.072-0.021,0.141-0.045,0.214-0.066c0.145-0.039,0.293-0.079,0.445-0.111c0.305-0.065,0.628-0.115,0.959-0.127
		c0.333-0.012,0.67,0.012,1.006,0.074c0.334,0.061,0.664,0.162,0.97,0.296c0.203,0.089,0.396,0.191,0.584,0.303
		c-0.047-0.336-0.103-0.667-0.158-1c-0.211-0.026-0.433-0.058-0.661-0.088c-0.143-0.019-0.289-0.032-0.438-0.05
		c-0.075-0.01-0.15-0.02-0.228-0.026c-0.073-0.008-0.147-0.017-0.226-0.023c-0.151-0.014-0.305-0.033-0.457-0.042
		c-0.15-0.009-0.31-0.019-0.461-0.03c-0.155-0.003-0.31-0.009-0.464-0.01l-0.114-0.003l-0.114,0.004
		c-0.078,0-0.153,0.006-0.23,0.006c-0.075,0.003-0.15,0.003-0.226,0.011c-0.075,0.004-0.151,0.011-0.224,0.019
		c-0.074,0.008-0.147,0.013-0.221,0.019c-0.037,0.003-0.075,0.007-0.109,0.01c-0.037,0.004-0.072,0.012-0.108,0.017
		c-0.142,0.026-0.285,0.046-0.421,0.07c-0.071,0.006-0.139,0.024-0.201,0.044c-0.068,0.014-0.134,0.03-0.197,0.047
		c-0.261,0.051-0.496,0.139-0.722,0.208c-0.056,0.018-0.11,0.033-0.162,0.053c-0.053,0.02-0.103,0.04-0.151,0.059
		c-0.1,0.039-0.191,0.078-0.279,0.111c-0.18,0.068-0.326,0.144-0.449,0.202c-0.245,0.12-0.385,0.188-0.385,0.188
		s0.138-0.075,0.375-0.205c0.122-0.066,0.263-0.15,0.438-0.226c0.086-0.039,0.181-0.08,0.277-0.125
		c0.049-0.022,0.098-0.046,0.149-0.07c0.051-0.021,0.104-0.038,0.156-0.059c0.225-0.081,0.46-0.182,0.722-0.247
		c0.063-0.02,0.129-0.039,0.197-0.059c0.065-0.018,0.133-0.042,0.201-0.052c0.14-0.033,0.283-0.062,0.426-0.095
		c0.036-0.007,0.071-0.014,0.107-0.022c0.039-0.005,0.074-0.008,0.113-0.016c0.072-0.009,0.149-0.02,0.222-0.031
		c0.075-0.011,0.151-0.022,0.229-0.033c0.077-0.004,0.153-0.013,0.232-0.018c0.074-0.008,0.153-0.011,0.23-0.02l0.116-0.007
		l0.118-0.005c0.07-0.004,0.142-0.005,0.21-0.005l-6.282-0.761c-0.052,0.117-0.104,0.23-0.155,0.346
		c-0.537,1.156-0.688,1.124,0.036,2.174c0.486,0.701,1.741,1.902,1.792,2.775c0.078,1.282,0.153,2.561,0.229,3.84
		c0.964-1.223,1.05-2.772,2.898-3.671c0.661-0.324,1.593,0.095,1.734,0.229c0.063,0.067,0.131,0.127,0.19,0.188
		c0.288,0.375,0.656,0.814,0.626,1.263c-0.11,1.524-1.587,2.458-2.467,3.528c-0.434,0.529-0.549,1.262-0.749,1.898
		c-0.166,0.524-0.852,0.18-1.196,0.447c-0.229,0.182-0.384,0.763-0.473,1.021c-0.456,1.363-0.849,2.754-1.248,4.134
		c-0.324,1.111-1.266,3.754-1.479,3.886c-0.482,0.302-0.967,0.604-1.451,0.907c-1.987,1.233-3.966,2.472-5.948,3.708
		c-1.632,1.016-5.044,3.297-5.044,3.297s-6.949-4.085-9.955-5.82c0.113-0.012,0.227-0.031,0.342-0.049
		c2.564,0.742,5.041,2.258,7.418,3.457c-1.406-0.918-2.814-1.832-4.221-2.746c-0.246-0.16-0.805-0.641-1.388-1.029
		c0.44-0.07,0.854-0.095,1.059,0.027c1.231,0.747,6.694,3.84,6.694,3.84s5.059-4.369,6.941-5.875
		c0.664-0.535,1.332-1.074,1.999-1.605c0.515-0.416,0.461-0.372,0.344-1.062c-0.323-1.904-0.694-3.757-1.146-5.634
		c-0.038-0.161-0.081-0.329-0.117-0.494c0.34-1.037,0.679-2.074,1.021-3.111c-0.552,0.621-3.017,2.703-2.739,3.451
		c0.742,1.996,1.482,3.988,2.227,5.986c0.18,0.488,0.279,0.473-0.146,0.732c-0.82,0.49-1.637,0.984-2.455,1.479
		c-1.953,1.17-3.344,2.156-5.235,3.467c-1.091,0.754-1.103,0.43-4.216-1.219c-1.439-0.761-2.477-1.682-4.092-1.496
		c-0.723,0.085-4.501,0.96-4.812,0.334c-0.922-1.865-1.848-3.734-2.77-5.602c0.042-0.287,0.116-0.62,0.216-1.054
		c0.181-0.795,0.363-1.594,0.545-2.387c0.071-0.316-0.828-1.383-0.996-1.655c-0.434-0.708-0.875-0.913-0.303-1.524
		c0.518-0.555,1.035-1.105,1.55-1.66c-0.319-0.16-0.634-0.34-0.911-0.553c0.414-0.019,0.867-0.104,1.271-0.188
		c0.285,0.232,0.421,0.639,0.778,1.306c0.104,0.194,1.063,0.136,1.276,0.151c0.562,0.041,0.48-0.066,0.707-0.596
		c0.301-0.703,0.336-1.32,0.36-1.324c0.248,0.443,0.409,0.876,0.177,1.223l-2.314,3.461c-0.307,0.461-0.463,0.692-0.44,0.944
		c0.018,0.268,0.224,0.446,0.594,0.773c0.075,0.067,0.161,0.146,0.258,0.23c0.291,0.264,0.841,0.355,1.426,0.393
		c-0.33-0.01-0.582,0.06-0.851,0.43c-0.462,0.641-0.924,1.283-1.385,1.925l-0.132,0.046l0.231,0.215
		c0.106,0.093,0.191,0.182,0.267,0.259c0.195,0.208,0.352,0.366,0.594,0.366c0.158,0,0.329-0.069,0.564-0.23l0.044-0.029
		c0.446-0.303,0.564-0.383,0.987-0.383c0.056,0,0.117,0.003,0.189,0.003c0.43,0.019,1.088,0.323,1.668,0.591
		c0.307,0.139,0.591,0.271,0.833,0.357c0.065,0.023,0.151,0.037,0.255,0.037c0.312,0,0.78-0.107,1.231-0.211
		c0.334-0.074,0.678-0.155,0.832-0.155c0,0,0.002,0,0.006,0l1.899,2.71h3.347l-4.095-2.397c-0.25-0.146-0.369-0.487-0.485-0.812
		c-0.039-0.118-0.082-0.236-0.129-0.345c-0.061-0.142-0.208-0.308-0.575-0.308c-0.329,0-0.724,0.131-0.929,0.205l-0.061,0.021
		c-0.144,0.046-0.279,0.109-0.407,0.171c-0.224,0.103-0.435,0.201-0.64,0.201c-0.093,0-0.18-0.02-0.268-0.059
		c-0.654-0.295-1.2-0.529-1.725-0.736c-0.302-0.12-0.617-0.18-0.955-0.18c-0.666,0-1.312,0.23-1.938,0.455
		c-0.146,0.05-0.296,0.106-0.443,0.154l-0.102,0.035c1.063-0.729,1.626-1.176,2.94-1.246c-0.019-0.349-0.053-1.049-0.053-1.049
		l0.027-0.016c0,0,0.513,0.011,0.686,0.031c0.39,0.041,0.744,0.062,1.072,0.062c0.745,0,1.391-0.101,2.189-0.265
		c0.061-0.013,0.115-0.021,0.166-0.028c0,0,0,0,0,0.001c0.07,0.068,0.122,0.123,0.146,0.15l0.01,0.008
		c1.1,1.063,1.691,1.596,3.108,2.066c0.73,0.243,1.582,0.236,2.404,0.235c0.346-0.003,0.67-0.003,0.979,0.011l0.047-0.406
		c-0.177-0.031-0.356-0.063-0.532-0.092c-1.135-0.192-2.205-0.372-3.131-1.123c-0.887-0.717-1.5-1.754-2.094-2.752
		c-0.112-0.191-0.225-0.377-0.336-0.562l-0.136-0.223l-0.425,0.044c-0.086,0.103-0.207,0.265-0.349,0.45
		c-0.425,0.561-1.303,1.724-1.687,1.781c-0.305,0-2.002-0.732-2.467-0.995l0.004-0.015c0.782-2.217,1.459-4.13,1.711-6.47
		l0.008-0.083l-1.498-2.148c-0.035-0.053-0.106-0.111-0.241-0.111c-0.259,0-0.915,0.239-1.897,0.633
		c-0.126,0.049-0.234,0.093-0.27,0.105c-0.188,0.066-0.377,0.142-0.576,0.227c-0.477,0.192-0.971,0.395-1.427,0.419
		c-0.204,0.01-0.374,0.015-0.528,0.015c-0.047,0.002-0.093,0.002-0.135,0.004c0.357-0.213,0.825-0.346,1.232-0.544
		c0.626-0.31-0.297-1.425-0.431-2.06c-0.03-0.146-0.058-0.289-0.087-0.434l13.679-2.012c0,0-5.22-0.289-9.171-0.733
		c-3.949-0.451-7.893-1.139-7.893-1.139s0.396,1.99,0.662,2.965c0.205,0.752,0.464,1.508,0.62,2.275
		c-0.06,0.228-0.644,0.592-0.812,0.75c-0.827,0.764-1.021,0.836-1.059,1.953c-0.019,0.568,1.437,1.764,1.238,2.149
		c-0.277,0.546-1.045,1.438-0.778,2.022c0.434,0.969,0.87,1.936,1.301,2.901c0.177,0.396-0.546,1.871-0.671,2.278
		c-0.154,0.513-0.682,1.39-0.371,1.879c0.506,0.798,1.014,1.596,1.522,2.396c0.64,1.011,2.149,3.456,2.317,3.618
		c-0.002,0.01,0.117,0.098,0.156,0.121c1.443,0.834,2.894,1.668,4.34,2.498c3.236,1.864,6.479,3.732,9.717,5.596
		C81.804,58.851,85.701,56.614,89.601,54.381L89.601,54.381z M64.505,35.605c0.22-0.044,0.435-0.109,0.646-0.177
		c0.317-0.093,0.615-0.187,0.865-0.187c0.262,0,0.424,0.104,0.545,0.349c0.092,0.185,0.211,0.374,0.334,0.574
		c0.039,0.063,0.076,0.126,0.117,0.19c-1.549-0.277-3.186,0.104-4.77,0.385c-0.145-0.184-0.258-0.393-0.33-0.623L64.505,35.605
		L64.505,35.605z"/>
	<polygon fill="#EDEDED" points="76.931,62.056 68.623,57.258 68.623,64.731 76.931,62.056 	"/>
	<path fill="#EDEDED" d="M82.66,66.536c-0.02,0-0.041,0.007-0.064,0.014l-3.432,1.105v3.218l3.432-1.103
		c0.115-0.037,0.189-0.147,0.189-0.27v-2.808C82.785,66.596,82.736,66.536,82.66,66.536L82.66,66.536z"/>
	<path fill="#EDEDED" d="M146.087,49.911l-5.271-7.589l5.145-11.379l-25.205,8.08l9.821,6.771L91.959,58.235v10.807v1.073v0.851
		l-0.987-0.583l-4.485-2.668v-0.706v-0.562l4.503,2.596V58.549v-3.5l-12.123,6.997l0.454,0.262l1.742,1.008l-0.625,0.199
		l-0.652,0.208l-1.404-0.837l-0.311-0.178L41.013,74.65l0.042,9.67l-15.418,4.942l4.607,8.171l-4.481,10.798l25.171-8.069
		l-9.921-6.525l0.126-0.041v0.021l89.563-28.852l-0.043-9.906L146.087,49.911L146.087,49.911z M53.975,77.865l-2.693,0.867V76.85
		c0-0.128-0.076-0.185-0.189-0.147l-2.692,0.866c-0.114,0.038-0.189,0.146-0.189,0.266v7.837c0,0.123,0.075,0.183,0.189,0.147
		l2.692-0.871c0.113-0.035,0.189-0.141,0.189-0.265v-2.194l2.693-0.868v2.852c0,1.253-0.931,2.556-2.087,2.93l-4.339,1.397
		c-1.156,0.372-2.082-0.332-2.082-1.583v-9.151c0-1.252,0.926-2.555,2.082-2.931l4.339-1.396c1.156-0.374,2.087,0.331,2.087,1.583
		V77.865L53.975,77.865z M64.533,83.325l-2.75,0.885v-5.579l-3.641,1.173v5.583l-2.748,0.883V72.607l2.748-0.885v5.374l3.641-1.175
		v-5.374l2.75-0.884V83.325L64.533,83.325z M74.807,77.755c0,1.253-0.929,2.558-2.085,2.93l-4.493,1.447
		c-1.156,0.374-2.088-0.331-2.088-1.585V69.144l2.75-0.886v10.749c0,0.122,0.076,0.18,0.188,0.143l2.786-0.896
		c0.117-0.037,0.192-0.143,0.192-0.268v-10.75l2.749-0.883V77.755L74.807,77.755z M83.242,77.294l-2.201-4.318l-1.877,0.607v5.025
		l-2.748,0.885V65.832l4.482-1.445l0.676-0.218l0.623-0.199l1.234-0.399c0.207-0.067,0.41-0.097,0.602-0.097
		c0.863,0,1.482,0.656,1.482,1.683v0.729v0.561v0.689v2.143c0,1.025-0.627,2.089-1.498,2.655l2.237,4.389L83.242,77.294
		L83.242,77.294z M95.617,71.049c0,1.251-0.927,2.556-2.082,2.93l-4.343,1.397c-1.157,0.372-2.087-0.333-2.087-1.585v-4.576
		l2.255,1.342l0.496,0.293v1.398c0,0.124,0.077,0.182,0.19,0.146l2.691-0.865c0.114-0.042,0.189-0.146,0.189-0.271v-2.19l2.69-0.871
		V71.049L95.617,71.049z M95.617,64.444l-2.69,0.865v-1.068l0.006-0.005v-0.703v-2.455v-0.569l0.603-0.194
		c1.155-0.374,2.082,0.334,2.082,1.585V64.444L95.617,64.444z M106.179,69.9l-2.748,0.886v-5.578l-3.643,1.17v5.583l-2.748,0.887
		V59.184l2.748-0.885v5.376l3.643-1.175v-5.375l2.748-0.885V69.9L106.179,69.9z M110.725,68.435l-2.745,0.89V55.658l2.745-0.885
		V68.435L110.725,68.435z M119.244,65.617l-6.718,2.237V54.191l2.75-0.885v10.955l3.968-1.355V65.617L119.244,65.617z
		 M127.941,62.792l-7.447,2.475V51.604l2.745-0.887v10.954l4.702-1.588V62.792L127.941,62.792z"/>
</g>
</svg>
